<?xml version="1.0" encoding="UTF-8"?>
<svg id="Layer_2" data-name="Layer 2" xmlns="http://www.w3.org/2000/svg" viewBox="0 0 28.96 17.5">
  <defs>
    <style>
      .cls-1 {
        fill: #fff;
      }

      .cls-2 {
        fill: #7d99d1;
      }
    </style>
  </defs>
  <g id="Layer_1-2" data-name="Layer 1">
    <g>
      <polygon class="cls-1" points="9.96 15.5 10.88 12.82 12.92 13.59 12.92 14.54 10.27 16.3 9.96 15.5"/>
      <polygon class="cls-1" points="9.21 12.27 8.29 10.86 8.96 9.6 23.43 2.85 23.83 3.66 10.96 12.5 9.21 12.27"/>
      <polygon class="cls-1" points="9.21 12.27 8.29 10.86 8.96 9.6 23.43 2.85 23.83 3.66 10.96 12.5 9.21 12.27"/>
      <g>
        <polygon class="cls-1" points="28.46 .5 .5 6.46 7.83 10.13 28.46 .5"/>
        <path class="cls-2" d="M7.83,10.63c-.08,0-.15-.02-.22-.05L.28,6.91c-.19-.1-.3-.3-.27-.51,.03-.21,.18-.38,.39-.43L28.35,.01c.25-.05,.5,.09,.58,.33,.08,.24-.03,.5-.26,.61L8.04,10.58c-.07,.03-.14,.05-.21,.05ZM2,6.65l5.84,2.92L24.27,1.91,2,6.65Z"/>
      </g>
      <g>
        <polygon class="cls-1" points="28.46 .5 18.37 17 11.04 12.42 28.46 .5"/>
        <path class="cls-2" d="M18.38,17.5c-.09,0-.18-.03-.26-.08l-7.33-4.58c-.14-.09-.23-.24-.24-.41,0-.17,.08-.33,.22-.42L28.18,.09c.2-.13,.46-.11,.63,.05,.17,.16,.21,.42,.08,.62l-10.08,16.5c-.07,.11-.18,.2-.31,.23-.04,0-.08,.01-.12,.01Zm-6.42-5.1l6.26,3.91L26.81,2.23,11.95,12.4Z"/>
      </g>
      <g>
        <polyline class="cls-1" points="8.29 10.58 9.21 17 11.04 12.42"/>
        <path class="cls-2" d="M9.21,17.5s-.04,0-.06,0c-.22-.03-.4-.2-.44-.43l-.92-6.42c-.04-.27,.15-.53,.42-.57,.26-.04,.53,.15,.57,.42l.65,4.56,1.14-2.85c.1-.26,.39-.38,.65-.28,.26,.1,.38,.39,.28,.65l-1.83,4.58c-.08,.19-.26,.31-.46,.31Z"/>
      </g>
      <rect class="cls-2" x="8.76" y="15.03" width="5.34" height="1" transform="translate(-6.67 8.9) rotate(-33.53)"/>
    </g>
  </g>
</svg>